<?xml version="1.0" encoding="UTF-8"?>
<svg width="22px" height="20px" viewBox="0 0 22 20" version="1.1" xmlns="http://www.w3.org/2000/svg" xmlns:xlink="http://www.w3.org/1999/xlink">
    <!-- Generator: Sketch 47.1 (45422) - http://www.bohemiancoding.com/sketch -->
    <title>Icon /  Editor / Pic</title>
    <desc>Created with Sketch.</desc>
    <defs></defs>
    <g id="Icon-图标" stroke="none" stroke-width="1" fill="none" fill-rule="evenodd">
        <g id="Artboard" transform="translate(-140.000000, -451.000000)" fill="#9A9A9A">
            <g id="Icon-/--Editor-/-Pic-Copy" transform="translate(141.000000, 454.000000)">
                <path d="M1.5,0 L18.5,0 C19.3284271,-1.52179594e-16 20,0.671572875 20,1.5 L20,13.5 C20,14.3284271 19.3284271,15 18.5,15 L1.5,15 L1.5,15 C0.671572875,15 1.01453063e-16,14.3284271 0,13.5 L0,1.5 L0,1.5 C-1.01453063e-16,0.671572875 0.671572875,-5.13954221e-16 1.5,-6.66133815e-16 L1.5,0 Z M1,1 L1,14 L19,14 L19,1 L1,1 Z" id="Combined-Shape"></path>
                <path d="M19,10.8 L14.5,6 L11.4557196,9.24723247 L6.5,4 L1,9.82352941 L1,10.8235294 L6.5,5 L11.4557196,10.2472325 L14.5,7 L19,11.8 L19,10.8 Z" id="Combined-Shape"></path>
            </g>
        </g>
    </g>
</svg>